<?xml version="1.0" standalone="no"?>
<!DOCTYPE svg PUBLIC "-//W3C//DTD SVG 20010904//EN"
 "http://www.w3.org/TR/2001/REC-SVG-20010904/DTD/svg10.dtd">
<svg version="1.0" xmlns="http://www.w3.org/2000/svg"
 width="1000.000000pt" height="1000.000000pt" viewBox="0 0 1000.000000 1000.000000"
 preserveAspectRatio="xMidYMid meet">

<g transform="translate(0.000000,1000.000000) scale(0.100000,-0.100000)"
fill="#000000" stroke="none">
<path d="M4580 9431 c-8 -5 -58 -12 -110 -15 -235 -16 -514 -67 -780 -141 -25
-7 -65 -18 -90 -25 -25 -7 -56 -16 -70 -22 -13 -5 -65 -23 -115 -39 -49 -17
-94 -35 -100 -40 -5 -5 -15 -9 -21 -9 -7 0 -48 -16 -91 -36 -43 -20 -94 -43
-113 -51 -72 -32 -307 -148 -347 -172 l-43 -26 0 -3222 0 -3223 1060 0 1060 0
0 2292 c0 1620 -3 2310 -11 2352 -27 149 -90 228 -244 306 -173 87 -215 151
-215 327 0 58 4 122 9 142 5 20 17 81 26 136 10 55 21 114 25 130 5 17 11 51
15 77 9 67 23 75 95 55 33 -10 70 -17 82 -17 12 0 35 -4 52 -9 17 -5 58 -17
91 -26 103 -30 209 -65 227 -75 10 -6 23 -10 29 -10 26 0 262 -124 364 -191
116 -77 286 -233 340 -314 17 -24 33 -45 36 -45 3 0 30 35 59 78 74 105 255
284 367 359 90 61 287 163 315 163 8 0 18 4 24 8 5 5 38 16 74 26 36 10 81 22
100 27 148 40 464 51 694 24 124 -15 153 -19 279 -46 94 -20 241 -63 314 -91
29 -11 57 -18 63 -16 15 5 -259 269 -375 363 -27 22 -57 47 -65 55 -9 8 -34
28 -55 45 -22 16 -44 33 -50 37 -32 25 -197 138 -202 138 -3 0 -21 11 -39 25
-18 14 -37 25 -43 25 -6 0 -11 4 -11 9 0 5 -8 11 -17 15 -19 6 -54 27 -63 37
-3 3 -12 9 -20 12 -8 4 -37 21 -65 37 -43 26 -324 166 -410 205 -118 53 -147
65 -158 65 -7 0 -17 4 -23 9 -5 4 -31 16 -59 26 -27 9 -59 21 -70 25 -31 12
-105 36 -155 50 -25 7 -65 18 -90 25 -114 32 -235 62 -300 74 -30 6 -80 16
-110 22 -63 13 -139 22 -325 39 -71 6 -138 15 -147 21 -22 11 -577 12 -598 0z"/>
<path d="M1551 7902 c-28 -31 -154 -196 -191 -251 -14 -20 -35 -47 -47 -61
-13 -14 -23 -29 -23 -35 0 -6 -11 -22 -25 -37 -14 -15 -25 -30 -25 -33 0 -3
-22 -40 -50 -82 -27 -42 -50 -80 -50 -84 0 -5 -4 -9 -10 -9 -5 0 -10 -5 -10
-11 0 -7 -18 -40 -40 -75 -22 -35 -40 -70 -40 -78 0 -8 -3 -16 -7 -18 -8 -3
-69 -124 -111 -218 -11 -25 -34 -76 -51 -113 -17 -38 -31 -74 -31 -81 0 -6 -4
-16 -8 -21 -5 -6 -17 -32 -26 -60 -10 -27 -21 -59 -26 -70 -5 -11 -16 -45 -26
-75 -9 -30 -20 -64 -25 -75 -4 -11 -15 -47 -24 -80 -9 -33 -21 -71 -26 -85
-13 -37 -32 -117 -64 -270 -22 -99 -29 -142 -65 -390 -5 -36 -12 -108 -15
-160 -3 -52 -10 -99 -16 -104 -12 -13 -12 -479 1 -492 5 -5 14 -73 20 -149 13
-183 27 -303 40 -339 5 -16 10 -41 10 -57 0 -24 9 -70 39 -189 5 -19 14 -57
20 -85 21 -94 86 -312 107 -362 8 -17 14 -37 14 -45 0 -8 4 -18 8 -23 4 -6 14
-28 21 -50 7 -22 19 -53 26 -70 7 -16 23 -55 35 -85 46 -115 155 -340 197
-408 18 -29 33 -55 33 -57 0 -14 197 -320 227 -352 6 -7 21 -29 34 -50 13 -21
26 -40 29 -43 4 -3 26 -32 51 -65 24 -33 51 -69 61 -80 9 -11 32 -39 51 -62
l35 -42 6 37 c9 54 7 5660 -2 5666 -4 2 -18 -8 -31 -22z"/>
<path d="M6850 7430 c-150 -13 -297 -64 -428 -147 -88 -57 -169 -135 -249
-241 -42 -55 -143 -247 -143 -271 0 -6 -4 -19 -9 -29 -11 -20 -36 -108 -50
-177 -35 -169 -36 -216 -36 -1425 l0 -1195 230 0 c223 1 313 8 485 41 287 56
539 157 765 307 326 217 581 543 715 917 6 19 15 44 19 55 22 59 41 125 41
144 0 12 4 29 9 39 9 18 33 150 51 287 36 275 -10 668 -105 900 -6 17 -18 46
-25 65 -18 46 -79 161 -96 181 -8 8 -14 19 -14 23 0 13 -82 111 -156 187 -116
119 -288 228 -434 275 -30 9 -64 20 -75 25 -89 33 -338 53 -495 39z"/>
<path d="M9214 5033 c-9 -32 -28 -80 -41 -107 -13 -28 -23 -53 -23 -57 0 -10
-62 -147 -102 -224 -34 -66 -149 -254 -182 -297 -12 -15 -37 -48 -56 -74 -19
-26 -40 -52 -45 -58 -6 -6 -21 -24 -33 -41 -27 -35 -155 -166 -239 -245 -163
-154 -372 -297 -622 -425 -81 -41 -202 -95 -215 -95 -7 0 -16 -3 -20 -7 -12
-12 -266 -99 -376 -127 -116 -31 -134 -35 -215 -51 -331 -64 -442 -76 -820
-84 l-290 -6 -2 -1135 c-2 -624 1 -1140 5 -1147 5 -8 19 -8 57 2 28 8 75 20
105 29 241 65 637 231 880 367 30 17 80 45 110 61 30 17 75 45 100 63 25 18
50 34 55 36 13 5 128 82 135 90 3 3 25 18 49 33 46 29 152 113 261 205 240
205 488 465 650 685 50 66 96 128 103 136 27 34 167 249 197 305 18 33 40 71
50 85 16 24 173 343 190 385 4 11 12 31 18 45 21 47 69 175 97 255 14 44 30
89 35 100 4 11 16 47 25 80 10 33 21 71 26 85 4 14 15 57 24 95 9 39 20 86 25
105 9 36 35 169 50 255 16 89 40 288 44 370 3 44 10 81 15 83 14 5 15 282 2
282 -5 0 -17 -26 -27 -57z"/>
<path d="M2346 1601 l-100 -6 35 -26 c19 -14 49 -34 67 -44 17 -11 32 -22 32
-25 0 -3 16 -14 35 -24 19 -11 35 -22 35 -26 0 -4 8 -10 18 -14 19 -6 38 -18
103 -63 26 -18 50 -33 53 -33 3 0 41 -21 84 -48 109 -67 401 -209 557 -271 11
-5 31 -13 45 -19 73 -31 97 -40 115 -45 11 -3 45 -15 75 -26 30 -11 89 -29
130 -40 41 -11 102 -27 135 -37 88 -24 153 -39 280 -63 172 -33 292 -49 455
-61 68 -5 116 -12 118 -19 2 -7 39 -11 103 -11 l99 0 0 455 0 455 -1187 -2
c-654 -1 -1233 -4 -1287 -7z"/>
</g>
</svg>
